<?xml version="1.0" encoding="UTF-8" standalone="no"?>
<svg
   width="777.36578"
   height="763.12396"
   version="1.1"
   id="svg3"
   sodipodi:docname="octophant.svg"
   inkscape:version="1.4 (e7c3feb1, 2024-10-09)"
   xmlns:inkscape="http://www.inkscape.org/namespaces/inkscape"
   xmlns:sodipodi="http://sodipodi.sourceforge.net/DTD/sodipodi-0.dtd"
   xmlns="http://www.w3.org/2000/svg"
   xmlns:svg="http://www.w3.org/2000/svg">
  <sodipodi:namedview
     id="namedview3"
     pagecolor="#ffffff"
     bordercolor="#666666"
     borderopacity="1.0"
     inkscape:showpageshadow="2"
     inkscape:pageopacity="0.0"
     inkscape:pagecheckerboard="0"
     inkscape:deskcolor="#d1d1d1"
     inkscape:zoom="0.98535156"
     inkscape:cx="391.73835"
     inkscape:cy="357.74034"
     inkscape:window-width="1696"
     inkscape:window-height="1186"
     inkscape:window-x="0"
     inkscape:window-y="25"
     inkscape:window-maximized="0"
     inkscape:current-layer="svg3" />
  <defs
     id="defs1">
    <path
       id="path-0"
       style="fill:none"
       d="m 104.311,405.488 c 0,-24.489 0.393,-40.684 0.393,-56.817 6.17,-28.677 17.443,-51.606 27.175,-75.029 13.012,-24.928 25.336,-42.288 40.772,-59.045 11.654,-16.054 20.901,-26.708 29.145,-38.225 14.546,-14.983 34.838,-24.661 48.631,-36.012 35.805,-20.181 53.311,-25.461 75.619,-30.131 23.536,-5.535 60.056,-14.593 80.352,-14.593 22.049,-3.509 30.843,1.735 48.919,1.735 24.647,0 58.784,10.851 77.456,20.187 24.085,16.148 15.635,20.682 36.477,32.031 l 38.136,6.536 c 5.013,10.072 -30.251,16.155 -29.222,27.22" />
    <path
       id="path-1"
       style="fill:none"
       d="m 78.11,542.062 c 0,-441.607 417.277,-465.631 434.699,-465.631 16.254,0 428.625,25.65 428.625,481.288" />
    <path
       id="path-2"
       style="fill:none"
       d="m 195.15,834.381 c 34.644,58.293 54.103,85.582 78.272,115.772 5.628,5.629 9.676,7.531 14.296,9.828 5.587,4.452 13.7,5.405 19.003,5.405 6.775,3.09 15.194,4.998 20.778,4.998 8.439,2.239 16.909,2.333 23.979,2.333 l 2.583,0.646 c 3.844,0 8.154,-0.087 11.585,-0.087" />
    <path
       id="path-3"
       style="fill:none"
       d="M 196.175,1021.844 C 136.765,979.109 129.53,979.976 70.344,896.564" />
  </defs>
  <path
     fill="#3c3b3c"
     d="m 509.492,658.79917 -0.093,1.37 c -2.096,1.213 -4.425,2.097 -6.831,2.457 -2.085,0.606 -4.365,1.422 -6.538,1.556 -5.658,0.349 -11.044,-2.059 -15.034,-5.971 -6.012,-5.894 -9.071,-14.569 -9.174,-22.885 -0.132,-10.55 4.317,-21.225 11.74,-28.686 5.029,-5.053 16.553,-12.514 23.211,-14.595 3.685,-1.151 7.578,-1.459 11.421,-1.43 2.976,0.021 6.973,-0.046 9.092,2.383 2.12,2.43 1.551,6.857 1.446,9.823 -0.169,0.02 -0.338,0.051 -0.508,0.061 -1.783,0.109 -3.255,-0.644 -4.923,0.078 0.241,1.04 0.011,0.546 0.757,1.451 -10.524,-0.081 -23.647,-0.856 -31.766,7.048 -2.565,2.497 -4.435,5.562 -6.208,8.642 12.14,-9.037 21.488,-13.917 37.195,-11.722 12.596,1.761 28.26,10.38 35.811,20.772 2.569,3.535 4.44,7.837 6.154,11.836 6.298,14.69 5.924,22.668 7.326,37.799 4.226,-6.53 5.426,-15.333 7.419,-22.843 -3.329,-4.834 -6.664,-9.584 -8.918,-15.041 -2.51,-6.077 -4.037,-12.491 -6.796,-18.482 l -7.248,-3.178 0.733,-0.544 c -4.373,-2.127 -14.734,-5.65 -17.653,-8.957 -1.84,-2.084 -3.137,-2.994 -5.816,-3.915 -1.131,-0.389 -1.583,-0.473 -2.477,-1.289 l 0.12,-0.186 c 2.915,-1.084 5.625,-2.464 8.437,-3.777 5.326,-2.486 7.956,-1.913 13.242,0.008 l 0.967,-0.477 c 5.969,2.493 10.159,5.99 14.123,11.077 -0.493,3.237 -1.64,7.418 -0.07,10.462 5.592,3.15 10.38,-7.691 19.454,8.557 1.867,3.344 3.927,7.023 4.96,10.733 0.547,1.961 0.766,4.265 -0.267,6.113 -1.816,3.251 -4.258,4.637 -3.604,8.751 4.635,2.558 8.782,0.798 10.694,7.327 1.755,5.993 0.65,18.584 -2.454,24.023 -1.677,2.941 -8.7,4.505 -8.308,6.248 0.253,1.127 0.984,2.042 1.59,3.005 3.457,5.488 1.882,7.614 -1.004,12.882 -2.364,4.315 -7.696,13.851 -12.687,15.345 -2.286,0.684 -4.894,-1.023 -6.996,-0.212 -1.212,2.352 0.075,4.927 -0.818,7.219 -1.837,4.721 -18.716,12.107 -23.713,13.674 -0.609,0.191 -1.222,0.365 -1.84,0.522 -4.164,-1.315 -7.987,-2.402 -12.391,-2.564 -0.099,2.936 0.285,7.101 -2.145,9.194 -3.788,3.263 -25.01,2.782 -30.212,1.816 -6.882,-1.277 -5.812,-6.406 -9.619,-7.622 -2.483,-0.793 -7.313,4.656 -10.291,5.055 -5.948,0.796 -26.87,-8.559 -31.282,-12.768 -0.239,-3.025 -0.355,-6.054 -0.347,-9.088 -3.164,0.098 -6.524,0.699 -9.647,0.593 -6.273,-0.214 -13.502,-7.275 -17.833,-11.365 -2.853,-2.695 -5.178,-5.491 -7.046,-8.968 0.657,-2.236 1.577,-4.499 1.255,-6.848 -0.708,-1.177 -0.834,-1.505 -2.225,-1.931 -1.824,-0.559 -4.693,0.022 -6.595,0.231 -6.155,-4.794 -12.72,-9.226 -13.914,-17.584 -0.404,-2.824 0.299,-5.896 0.654,-8.708 -6.668,-4.786 -12.713,-10.571 -14.316,-19.045 -0.397,-2.095 -0.212,-4.395 -0.147,-6.524 -11.988,-9.024 -14.818,-22.699 -18.508,-36.333 -1.263,-4.665 -3.052,-9.312 -3.966,-14.047 1.358,-2.905 3.2,-5.116 5.174,-7.603 -3.058,-12.599 -6.748,-24.943 -8.604,-37.808 -2.962,-20.526 -3.19,-41.607 -5.443,-62.262 -2.345,-20.323 -4.376,-40.677 -6.095,-61.062 -0.96,-10.83 -2.187,-21.594 -2.415,-32.476 -2.507,5.8 -4.869,11.796 -7.782,17.4 -7.303,14.049 -21.009,32.997 -36.003,39.036 -3.433,1.384 -7.22,2.424 -10.802,3.348 -0.323,1.878 -0.558,4.103 -1.382,5.828 -3.829,8.025 -14.26,15.552 -21.304,20.537 -7.732,5.472 -13.726,8.234 -23.386,8.136 -0.567,11.349 -13.467,27.135 -21.632,34.54 -2.244,2.035 -4.678,3.363 -7.43,4.573 3.985,14.938 10.241,27.039 24.139,35.06 12.097,6.981 25.988,7.538 39.532,6.194 3.674,-0.365 7.533,-0.602 11.104,-1.574 1.874,-0.51 4.097,-1.22 5.109,-3.014 0.459,-0.815 0.441,-1.853 0.15,-2.727 -1.364,-4.097 -6.506,-7.385 -10.323,-9.011 -12.963,-5.522 -31.89,7.367 -36.364,1.579 -0.049,-2.761 1.784,-4.674 3.637,-6.536 7.052,-7.081 16.595,-9.716 26.375,-9.569 8.847,0.133 18.536,2.331 26.061,7.125 5.752,3.665 9.953,6.989 16.667,8.865 -1.036,-5.515 -1.952,-11.127 -3.618,-16.492 -2.008,-6.47 -4.71,-12.793 -6.345,-19.368 -3.442,-13.852 -3.118,-27.65 -2.686,-41.774 0.135,-4.422 -0.711,-10.825 1.783,-14.674 2.652,-4.095 8.547,-6.344 12.134,-9.747 5.16,-4.895 9.642,-10.358 14.115,-15.87 3.36,27.559 4.336,55.434 6.865,83.079 1.242,13.581 2.48,27.215 3.977,40.768 0.959,8.683 2.54,17.354 3.238,26.05 0.912,11.355 0.846,22.536 0.297,33.897 -1.096,22.637 -4.188,45.385 -18.667,63.833 -8.693,11.076 -23.276,21.689 -37.598,23.261 -7.599,0.834 -15.957,0.026 -23.273,-2.182 -2.449,-0.739 -5.611,-2.856 -8.117,-2.788 -0.289,0.986 -0.003,1.202 0.487,2.056 2.978,5.192 12.797,9.997 18.494,11.354 15.238,3.629 30.795,-0.046 43.806,-8.431 18.517,-11.935 26.911,-32.829 31.299,-53.589 1.686,-7.978 2.233,-15.461 0.331,-23.469 4.499,8.037 9.42,16.005 13.71,24.131 2.231,4.224 3.88,8.743 6.184,12.929 2.284,4.148 5.056,8.041 7.244,12.235 2.975,5.704 5.309,11.686 8.384,17.357 -4.452,11.749 -14.497,28.969 -26.489,34.332 -3.662,1.637 -10.923,-0.275 -12.671,3.985 -0.753,1.835 -0.859,3.993 -1.437,5.897 -1.298,4.276 -6.466,6.891 -10.232,8.76 -5.56,2.76 -24.653,10.924 -30.574,8.221 -2.324,-1.062 -3.729,-4.235 -4.89,-6.367 -4.244,1.844 -7.133,4.744 -11.034,6.924 -5.635,3.149 -21.197,-2.786 -26.776,-5.006 -4.93,-1.963 -8.875,-3.459 -11.069,-8.567 -0.675,-1.572 -1.135,-3.437 -2.559,-4.487 -2.626,-0.572 -5.13,0.214 -7.757,-0.123 -8.431,-1.082 -17.875,-7.7 -22.288,-14.9 -0.713,-1.164 -1.272,-2.413 -1.816,-3.662 0.216,-1.939 1.231,-6.472 -0.161,-8.019 -4.025,-4.474 -13.314,-5.076 -13.751,-15.986 -0.194,-4.829 1.545,-7.319 4.26,-11.06 -4.788,-4.313 -8.328,-5.312 -8.83,-12.424 -0.412,-5.831 0.236,-12.378 2.888,-17.616 1.567,-0.859 3.256,-1.582 4.304,-3.082 0.39,-2.785 -0.839,-5.623 -0.951,-8.423 -0.302,-7.505 4.808,-16.905 10.66,-21.597 3.658,-2.932 7.099,-1.187 10.16,-2.86 2.125,-1.162 4.347,-3.653 6.077,-5.337 4.822,-4.695 9.026,-7.335 15.253,-9.894 6.412,-1.418 12.228,-1.492 18.745,-0.762 -5.149,1.183 -10.223,2.116 -14.874,4.761 -8.023,3.19 -18.952,15.135 -22.373,22.972 -3.628,8.311 -7.334,15.944 -11.704,23.906 0.511,3.273 1.076,6.581 1.314,9.888 0.435,6.063 -0.321,12.385 2.404,18.011 1.878,3.877 4.769,7.042 6.972,10.708 -2.87,-22.821 -3.47,-45.477 11.441,-64.68 5.102,-6.57 11.822,-10.123 17.583,-15.747 6.4,-3.051 9.949,-8.037 17.547,-8.991 3.557,-0.446 7.038,0.53 10.493,0.043 l 0.298,-0.643 c -1.278,-2.25 -3.63,-3.753 -5.902,-4.881 -10.525,-5.228 -25.264,-3.746 -36.057,-0.243 -13.02,2.179 -22.273,14.135 -33.485,20.125 -3.482,1.861 -7.722,2.869 -11.494,4.038 -8.332,-2.706 -16.636,-6.746 -23.479,-12.264 -3.529,-2.845 -11.722,-9.455 -11.766,-14.329 -0.023,-2.563 1.027,-4.846 0.735,-7.485 -1.808,-3.656 -6.96,-2.893 -10.046,-5.004 -8.221,-5.624 -15.461,-26.347 -17.357,-35.868 -1.117,-5.613 3.572,-9.041 6.453,-13.244 -1.715,-2.934 -4.71,-5.344 -5.794,-8.584 -3.031,-9.057 0.851,-34.902 5.07,-43.242 1.777,-1.234 3.708,-2.194 5.617,-3.205 2.231,-3.85 3.899,-8.072 6.083,-11.975 5.256,-9.395 11.921,-18.723 19.09,-26.742 5.89,-6.589 12.142,-12.925 18.299,-19.268 3.126,-3.22 6.741,-6.401 9.363,-10.048 0.418,-0.582 0.279,-0.251 0.124,-1.185 -0.435,-0.383 -0.481,-0.469 -1.077,-0.75 -4.223,-1.998 -16.579,5.377 -21.614,6.804 -9.498,2.693 -23.293,4.183 -32.808,1.032 -2.711,-0.898 -5.265,-2.515 -7.742,-3.917 -16.821,7.972 -31.598,5.67 -49.204,1.843 -5.469,5.353 -10.819,11.616 -13.593,18.839 -4.002,10.422 -3.23,21.567 1.348,31.663 4.61,10.167 11.712,17.986 22.319,21.931 10.39,3.865 22.907,2.611 32.827,-2.004 -7.132,14.127 -6.884,30.254 -4.14,45.473 -5.415,2.181 -10.492,4.042 -14.686,8.328 -1.402,1.431 -2.417,2.625 -2.426,4.726 3.321,5.924 13.676,2.701 18.265,6.645 0.578,0.497 0.457,0.868 0.545,1.565 -0.271,0.4 -0.37,0.615 -0.824,0.908 -1.355,0.872 -3.368,1.07 -4.943,1.291 -8.09,1.137 -14.447,-0.285 -22.115,-2.856 -10.285,5.6 -18.006,4.281 -29.049,1.522 -12.619,-3.153 -19.53,-7.387 -26.331,-18.753 -5.484,-2.715 -10.76,-4.705 -15.476,-8.734 -4.609,-3.937 -11.667,-10.881 -12.39,-17.196 -0.319,-2.785 0.152,-5.774 -1.044,-8.389 -1.656,-3.624 -4.842,-7.163 -7.04,-10.535 -5.87,-9.006 -7.648,-20.421 -8.511,-30.95 2.172,-2.533 4.293,-5.046 6.224,-7.771 -0.382,-4.983 -2.368,-9.491 -3.078,-14.384 -1.201,-8.277 0.809,-26.062 6.049,-32.764 3.178,-4.064 8.352,-4.442 13.098,-5.096 -0.332,-4.222 -0.594,-8.163 0.702,-12.282 1.783,-5.665 5.6,-11.147 9.972,-15.132 3.683,-3.356 8.353,-5.753 12.62,-8.273 12.655,-7.473 25.66,-13.889 38.725,-20.596 2.846,-0.577 5.876,-1.064 8.165,-2.951 0.329,-0.768 0.647,-1.073 0.427,-1.932 -0.634,-2.473 -3.852,-4.092 -5.845,-5.449 -4.626,1.498 -8.706,2.167 -12.594,5.307 -0.772,0.557 -1.345,1.079 -2.307,1.236 -0.558,0.091 -0.524,0.085 -0.952,-0.31 -4.314,-3.986 -11.65,-19.3 -11.929,-25.616 -0.159,-3.621 3.669,-5.601 5.912,-8.014 -0.601,-1.198 -1.322,-2.317 -1.998,-3.474 -4.176,-7.156 -3.458,-14.197 -1.456,-21.893 1.587,-1.668 3.574,-3.055 4.995,-4.865 2.377,-3.027 0.275,-8.755 1.014,-12.64 l 0.103,-0.515 c 0.004,1.462 -0.097,2.84 0.306,4.256 0.228,-3.873 0.53,-6.064 3.609,-8.733 1.611,-1.396 6.631,-5.602 8.666,-5.356 0.668,0.08 1.041,0.289 1.292,0.915 1.325,3.309 -2.309,11.619 -3.376,14.888 l 0.633,0.189 c -1.029,2.778 -2.599,5.006 -4.3,7.398 2.525,9.167 0.168,20.956 -2.581,29.84 2.558,4.061 5.288,7.618 7.473,11.946 l 0.696,0.195 c 0.985,-0.776 1.161,-1.179 1.263,-2.45 0.287,-3.595 -0.873,-7.372 -1.263,-10.937 -0.392,-3.579 -0.543,-7.167 -0.452,-10.766 0.091,-3.599 0.424,-7.176 0.997,-10.73 2.674,-15.998 12.862,-30.4 25.994,-39.725 11.15,-7.917 25.917,-10.695 39.325,-8.351 11.124,1.944 21.894,8.664 28.326,17.979 5.957,8.625 9.108,19.392 7.471,29.86 -0.881,5.631 -2.637,11.173 -3.639,16.814 1.193,-1.291 2.435,-2.598 3.437,-4.045 5.71,-8.243 6.755,-17.788 4.916,-27.475 -0.153,-0.783 -0.324,-1.561 -0.514,-2.336 -0.19,-0.775 -0.399,-1.544 -0.627,-2.308 -0.228,-0.765 -0.474,-1.523 -0.739,-2.275 -0.265,-0.753 -0.548,-1.498 -0.849,-2.237 -0.301,-0.738 -0.619,-1.469 -0.956,-2.192 -0.337,-0.723 -0.691,-1.437 -1.062,-2.143 -0.372,-0.706 -0.761,-1.402 -1.166,-2.089 -0.405,-0.687 -0.827,-1.363 -1.265,-2.03 -0.439,-0.666 -0.893,-1.321 -1.363,-1.965 -0.47,-0.644 -0.956,-1.276 -1.457,-1.897 -0.501,-0.621 -1.017,-1.229 -1.548,-1.824 -0.531,-0.595 -1.075,-1.177 -1.634,-1.746 -0.559,-0.569 -1.132,-1.124 -1.718,-1.665 -0.586,-0.541 -1.185,-1.067 -1.797,-1.579 -0.611,-0.511 -1.235,-1.008 -1.871,-1.489 -0.636,-0.481 -1.283,-0.947 -1.942,-1.397 -12.859,-8.717 -26.419,-10.505 -41.561,-8.2 -5.804,0.883 -12.11,2.448 -17.264,5.313 -2.859,1.59 -10.089,7.749 -12.636,8.036 -0.248,0.028 -0.498,0.027 -0.747,0.04 l -1.707,-1.68 c -3.611,3.472 -9.201,11.123 -14.207,11.992 l 14.676,-16.326 c 11.854,-10.82 28.731,-16.499 44.709,-15.721 16.912,0.824 33.779,9.6 44.963,22.17 9.059,10.183 12.93,25.331 11.953,38.736 -0.601,8.25 -9.832,26.934 -15.907,32.321 -5.748,5.098 -15.364,4.846 -22.601,4.24 -11.309,-0.947 -27.022,-6.908 -34.292,-15.962 -4.111,-5.119 -6.364,-12.455 -5.473,-18.992 0.776,-5.696 3.629,-11.085 8.3,-14.518 3.782,-2.779 10.559,-5.617 15.311,-4.786 4.462,0.781 9.164,3.735 11.748,7.416 1.779,2.533 2.727,6.331 2.029,9.392 -0.563,2.469 -3.315,5.373 -5.438,6.661 -1.913,1.16 -4.024,1.428 -6.165,0.764 -5.566,-1.724 -8.7,-10.466 -13.051,-10.899 -1.615,1.071 -1.996,2.506 -2.374,4.362 -0.728,3.588 0.178,7.346 2.238,10.374 2.887,4.243 7.981,5.331 12.713,6.015 5.455,0.788 11.883,-0.35 16.354,-3.723 3.924,-2.961 6.003,-7.453 6.632,-12.251 0.06,-0.451 0.108,-0.904 0.144,-1.358 0.037,-0.455 0.062,-0.91 0.075,-1.365 0.013,-0.455 0.015,-0.911 0.005,-1.366 -0.011,-0.455 -0.033,-0.91 -0.066,-1.364 -0.033,-0.455 -0.078,-0.908 -0.134,-1.36 -0.057,-0.452 -0.125,-0.902 -0.205,-1.35 -0.079,-0.449 -0.17,-0.895 -0.273,-1.339 -0.103,-0.444 -0.216,-0.885 -0.341,-1.323 -0.125,-0.438 -0.262,-0.872 -0.409,-1.303 -0.147,-0.431 -0.306,-0.858 -0.475,-1.281 -0.169,-0.423 -0.348,-0.842 -0.539,-1.255 -0.191,-0.414 -0.392,-0.823 -0.603,-1.226 -0.212,-0.403 -0.434,-0.801 -0.665,-1.194 -0.232,-0.392 -0.474,-0.778 -0.726,-1.157 -0.251,-0.38 -0.512,-0.753 -0.783,-1.119 -0.271,-0.367 -0.551,-0.726 -0.84,-1.078 -4.517,-5.437 -11.099,-8.272 -18.043,-8.796 -8.65,-0.652 -18.585,2.964 -25.101,8.623 -6.775,5.884 -11.238,15.753 -11.808,24.659 -0.584,9.128 3.119,18.289 9.196,25.004 7.594,8.391 30.79,19.317 41.948,19.785 21.388,0.897 49.903,-14.547 65.327,-28.882 3.777,-3.511 7.494,-7.249 10.893,-11.126 3.922,-4.472 7.724,-10.308 12.614,-13.739 1.314,-0.922 2.626,-1.293 4.241,-1.182 2.026,0.138 3.812,0.893 5.303,2.247 0.232,0.971 0.352,1.192 -0.158,2.116 -1.623,2.934 -4.683,5.941 -6.719,8.729 -18.949,25.951 -45.651,45.152 -77.088,52.595 -17.867,4.23 -35.657,3.924 -53.67,6.367 -11.281,1.53 -22.688,4.735 -33.261,8.971 -6.493,2.6 -13.12,5.782 -19.137,9.361 -3.172,1.888 -6.136,4.207 -9.409,5.899 1.433,1.644 2.602,2.745 2.384,5.09 -0.571,6.147 -12.902,17.241 -17.707,21.04 -0.703,0.556 -2.076,1.167 -1.916,2.083 0.235,0.168 0.476,0.328 0.705,0.503 2.526,1.932 4.321,6.048 5.815,8.837 0.15,-0.105 0.303,-0.208 0.452,-0.316 4.824,-3.465 9.123,-8.171 13.5,-12.224 10.269,-9.509 21.578,-17.225 34.66,-22.315 13.652,-5.313 28.99,-6.304 43.472,-7.437 20.216,-1.581 40.57,-1.403 60.554,-5.328 31.422,-6.171 61.488,-28.641 78.901,-55.1 l -0.385,0.329 c -6.916,5.99 -13.192,12.935 -19.919,19.173 -13.151,12.193 -29.533,22.187 -46.737,27.327 -5.423,1.621 -11.058,2.6 -16.576,3.859 9.287,-6.382 20.195,-10.117 29.828,-16.121 17.993,-11.215 31.211,-26.475 40.55,-45.364 3.608,-7.298 6.764,-15.021 10.965,-21.999 -13.613,-4.924 -25.684,-11.253 -37.171,-20.129 -11.99,-9.263 -22.83,-20.058 -33.116,-31.157 -4.673,-5.043 -8.879,-10.624 -14.059,-15.169 -5.254,-4.611 -11.395,-8.157 -16.645,-12.789 l -41.544,-37.187 c -5.155,-4.637 -9.883,-9.794 -15.234,-14.202 -10.232,-8.43 -25.48,-15.667 -33.739,-25.641 3.736,-5.536 8.235,-10.558 12.276,-15.876 32.982,-43.404995 81.303,-93.175995 136.893,-104.0849953 30.648,-6.014 81.597,5.376 107.405,22.9120003 0.908,0.618 1.812,1.243 2.711,1.874 16.41,-7.114 32.42,-8.987 49.354,-2.301 0.963,0.371 1.912,0.773 2.848,1.206 17.213,-5.697 35.988,-8.024 52.864,0.373 l 0.605,0.308 C 474.873,6.4791747 521.589,-4.7188253 556.217,2.1001747 c 24.298,4.785 55.38,24.1830003 74.528,40.0410003 13.713,11.355 26.769,24.748 38.422,38.172 6.036,6.954 12.152,14.094 17.726,21.418995 4.799,6.305 9.2,12.871 14.263,18.98 -5.533,4.832 -11.12,9.604 -17.104,13.876 -5.389,3.847 -11.304,7.332 -16.331,11.626 -6.259,5.348 -10.885,12.26 -16.991,17.738 -6.523,5.852 -13.72,10.605 -20.389,16.218 -6.224,5.239 -11.831,11.341 -17.835,16.847 -5.135,4.709 -10.742,8.861 -15.891,13.538 -5.478,4.975 -9.213,11.309 -14.086,16.799 -7.848,8.84 -21.348,21.051 -30.734,28.05 -14.384,10.727 -25.506,15.532 -42.038,21.839 12.437,38.716 37.503,62.879 73.119,81.204 8.045,4.139 16.163,6.475 25.032,8.013 0.475,0.082 2.154,0.323 2.352,0.781 -5.563,-0.152 -11.299,0.027 -16.786,-0.994 -6.32,-1.176 -12.226,-3.693 -18.164,-6.075 -24.606,-9.872 -40.616,-21.122 -59.029,-40.421 -3.182,-3.335 -5.86,-7.005 -8.811,-10.527 11.167,24.429 42.919,47.186 67.47,56.377 7.395,2.769 15.278,5.34 23.14,6.324 12.949,1.622 26.221,0.001 39.158,-0.869 24.303,-1.636 50.006,2.154 70.691,15.735 6.998,4.594 13.837,9.974 19.679,15.972 3.882,3.986 7.392,8.518 11.706,12.039 1.926,-3.089 3.919,-6.252 5.252,-9.654 -4.862,-4.212 -19.87,-19.792 -20.56,-25.426 -0.144,-1.176 0.191,-2.719 0.357,-3.899 -7.358,-10.56 -33.431,-19.236 -45.992,-21.486 -8.314,-1.488 -16.796,-2.688 -25.212,-3.396 -10.281,-0.864 -20.715,-1.226 -30.893,-2.946 -33.352,-5.637 -60.78,-24.819 -82.721,-49.778 -3.379,-3.843 -7.13,-7.723 -10.092,-11.882 -1.059,-1.487 -2.015,-2.92 -1.869,-4.781 2.29,-1.286 9.415,-2.781 11.968,-1.884 2.637,0.926 12.563,14.881 15.483,17.968 3.466,3.664 7.576,6.837 11.433,10.082 16.944,14.259 41.969,31.722 65.555,25.682 3.968,-1.016 7.834,-2.873 11.606,-4.456 10.886,-4.567 22.01,-9.208 28.138,-19.978 0.299,-0.539 0.586,-1.085 0.859,-1.638 0.273,-0.553 0.532,-1.113 0.777,-1.678 0.245,-0.566 0.476,-1.138 0.693,-1.715 0.217,-0.577 0.419,-1.159 0.608,-1.746 0.188,-0.587 0.362,-1.179 0.521,-1.775 0.159,-0.596 0.303,-1.195 0.433,-1.798 0.129,-0.603 0.244,-1.208 0.344,-1.817 0.099,-0.609 0.184,-1.219 0.254,-1.832 0.069,-0.613 0.124,-1.227 0.163,-1.842 0.039,-0.615 0.064,-1.231 0.073,-1.848 0.009,-0.617 0.002,-1.233 -0.019,-1.849 -0.021,-0.617 -0.058,-1.232 -0.11,-1.846 -0.051,-0.615 -0.118,-1.228 -0.2,-1.839 -0.082,-0.611 -0.179,-1.22 -0.291,-1.826 -0.112,-0.607 -0.239,-1.21 -0.381,-1.81 -0.141,-0.6 -0.298,-1.196 -0.469,-1.789 -2.363,-8.319 -7.836,-15.456 -15.548,-19.502 -7.395,-3.879 -16.165,-4.055 -23.996,-1.463 -6.475,2.143 -12.318,6.107 -15.39,12.381 -0.171,0.346 -0.334,0.696 -0.487,1.051 -0.153,0.355 -0.297,0.713 -0.432,1.076 -0.135,0.362 -0.26,0.727 -0.376,1.096 -0.115,0.369 -0.221,0.74 -0.317,1.114 -0.097,0.375 -0.183,0.751 -0.26,1.13 -0.077,0.379 -0.144,0.759 -0.201,1.141 -0.057,0.382 -0.103,0.765 -0.14,1.15 -0.037,0.385 -0.064,0.77 -0.081,1.156 -0.017,0.386 -0.024,0.772 -0.021,1.159 0.003,0.386 0.017,0.772 0.04,1.158 0.023,0.385 0.056,0.77 0.099,1.154 0.043,0.384 0.097,0.767 0.16,1.148 0.063,0.381 0.136,0.761 0.219,1.138 0.083,0.377 0.175,0.752 0.278,1.125 0.102,0.373 0.214,0.742 0.336,1.109 0.121,0.367 0.252,0.73 0.393,1.09 2.123,5.554 6.141,10.246 11.663,12.611 5.029,2.153 10.415,1.907 15.374,-0.325 3.996,-1.798 7.341,-4.955 8.831,-9.134 1.111,-3.116 1.092,-6.415 -0.419,-9.396 -1.376,-2.713 -3.816,-3.915 -6.432,-5.208 -0.843,3.476 -1.466,6.915 -1.974,10.456 l -0.572,0.463 c -2.449,1.952 -4.581,3.37 -7.844,3.028 -0.333,-0.034 -0.662,-0.085 -0.989,-0.152 -0.327,-0.067 -0.65,-0.151 -0.969,-0.251 -0.319,-0.1 -0.632,-0.216 -0.939,-0.348 -0.307,-0.131 -0.606,-0.278 -0.898,-0.441 -0.292,-0.162 -0.575,-0.339 -0.849,-0.53 -0.274,-0.191 -0.538,-0.395 -0.791,-0.613 -0.253,-0.218 -0.495,-0.448 -0.725,-0.69 -0.23,-0.242 -0.447,-0.495 -0.651,-0.76 -0.223,-0.287 -0.43,-0.585 -0.621,-0.893 -0.191,-0.309 -0.366,-0.627 -0.524,-0.954 -0.158,-0.327 -0.299,-0.661 -0.422,-1.003 -0.123,-0.341 -0.228,-0.688 -0.315,-1.041 -0.087,-0.353 -0.155,-0.709 -0.204,-1.069 -0.05,-0.359 -0.081,-0.721 -0.092,-1.084 -0.012,-0.363 -0.005,-0.725 0.021,-1.087 0.026,-0.363 0.071,-0.723 0.135,-1.08 0.643,-3.775 3.182,-7.228 6.334,-9.323 0.487,-0.319 0.989,-0.613 1.506,-0.881 0.517,-0.268 1.046,-0.509 1.587,-0.723 0.541,-0.214 1.092,-0.4 1.653,-0.559 0.56,-0.158 1.127,-0.287 1.7,-0.388 0.574,-0.101 1.151,-0.172 1.732,-0.213 0.581,-0.042 1.162,-0.054 1.744,-0.037 0.582,0.017 1.161,0.064 1.738,0.14 0.577,0.076 1.149,0.181 1.716,0.316 0.31,0.076 0.618,0.16 0.925,0.251 0.306,0.092 0.609,0.192 0.91,0.299 0.301,0.107 0.599,0.222 0.894,0.344 0.295,0.123 0.586,0.254 0.875,0.391 0.288,0.138 0.573,0.283 0.854,0.435 0.281,0.153 0.557,0.312 0.83,0.479 0.273,0.167 0.541,0.34 0.804,0.52 0.264,0.181 0.523,0.368 0.777,0.562 0.254,0.193 0.503,0.393 0.746,0.6 0.244,0.207 0.482,0.42 0.715,0.639 0.233,0.219 0.459,0.443 0.68,0.674 0.221,0.231 0.437,0.467 0.646,0.708 0.209,0.242 0.411,0.489 0.607,0.741 0.197,0.252 0.386,0.509 0.569,0.771 0.183,0.262 0.359,0.528 0.528,0.799 0.169,0.271 0.332,0.547 0.487,0.826 2.914,5.184 3.627,12.236 1.888,17.91 -2.926,9.544 -12.26,17.768 -20.917,22.16 -7.63,3.869 -21.073,7.182 -29.297,4.428 -9.277,-3.106 -13.907,-9.577 -17.949,-18.018 -6.328,-13.215 -6.985,-27.904 -2.121,-41.785 5.004,-14.283 16.087,-24.996 29.617,-31.468 14.091,-6.741 30.181,-9.525 45.191,-4.115 6.264,2.258 14.493,5.453 19.814,9.405 5.966,4.432 5.588,7.019 13.528,10.771 0.927,2.701 1.758,5.496 2.911,8.107 l 8.036,3.475 c 1.568,3.302 3.449,6.655 3.251,10.425 -0.073,1.384 -1.494,8.957 -0.765,9.754 1.065,1.163 3.273,1.747 4.484,2.974 3.402,3.446 4.967,15.584 3.469,20.002 -0.718,2.119 -3.762,3.893 -5.506,5.216 1.345,3.788 3.106,6.568 5.62,9.729 -1.282,5.781 -2.659,14.565 -7.982,18.07 -1.109,0.73 -2.368,1.318 -3.553,1.916 -1.099,5.569 -1.88,8.885 -6.294,12.722 6.781,4.112 13.996,7.451 20.668,11.741 3.662,2.355 6.726,5.437 10.302,7.868 3.365,2.287 7.283,3.723 10.663,5.984 6.907,4.621 12.837,15.19 15.258,22.97 -0.671,1.937 -1.583,3.843 -1.295,5.92 2.109,3.118 6.507,2.899 9.462,5.034 6.976,5.041 9.211,25.479 7.859,33.493 -1.039,6.162 -9.266,11.776 -5.935,16.588 3.854,5.567 5.805,6.936 4.847,14.488 -1.258,9.924 -7.359,26.741 -15.525,33.027 -3.653,2.812 -12.56,3.574 -13.049,9.087 -0.544,6.119 5.327,6.092 -2.75,14.598 -8.763,9.227 -19.98,17.404 -32.959,18.461 -6.22,0.507 -12.058,0.584 -18.101,2.35 -10.472,3.06 -19.82,8.569 -30.964,8.778 -12.735,0.24 -32.798,-3.248 -44.484,-8.863 -4.722,-2.269 -8.756,-6.073 -13.721,-7.821 -6.714,-2.364 -14.124,-1.662 -21.063,-2.844 -2.494,-0.425 -5.074,-1.15 -7.329,-2.317 -4.3,-2.222 -8.404,-5.917 -12.368,-8.727 -4.879,-3.46 -10.47,-6.122 -14.69,-10.434 -4.596,-4.694 -6.386,-12.471 -11.366,-16.487 -3.148,-2.538 -7.939,-3.337 -11.501,-5.249 -12.326,-6.619 -24.434,-19.573 -30.44,-32.203 -19.672,-10.341 -46.924,-42.669 -53.189,-64.182 -0.094,-0.323 -0.178,-0.648 -0.266,-0.972 l -0.075,0.545 c -1.529,8.248 -2.079,16.604 -3.025,24.927 -2.239,19.69 -4.098,39.272 -5.3,59.058 -3.668,60.398 -8.773,123.146 27.491,175.673 9.575,13.868 23.223,27.273 40.392,30.436 10.496,1.934 20.59,1.466 29.567,-4.819 6.739,-4.718 10.856,-11.818 12.177,-19.859 1.405,-8.554 -1,-17.464 -6.124,-24.407 -5.276,-7.149 -13.567,-12.346 -22.381,-13.618 -6.237,-0.899 -12.368,0.229 -17.48,4.052 -3.453,2.582 -6.244,6.369 -6.847,10.719 -0.424,3.061 0.394,5.723 2.308,8.128 2.007,2.521 4.945,3.894 7.839,5.159 2.936,0.794 6.409,1.314 8.812,3.238 z M 82.798,249.55417 c -1.843,2.12 -3.09,4.604 -4.788,6.8 l 14.676,-16.326 c -3.23,3.302 -6.835,6.015 -9.888,9.526 z m 425.104,388.895 c 3.472,-0.221 6.722,0.379 9.488,2.689 0.781,0.652 0.775,0.7 0.83,1.742 -1.281,0.957 -2.951,0.67 -4.474,0.648 -2.839,0.307 -6.775,0.732 -9.233,-1.007 -0.651,-0.461 -0.429,-0.431 -0.51,-1.346 1.078,-1.432 2.31,-1.958 3.899,-2.726 z m -384.033,-96.026 c 1.483,0.349 1.706,0.37 2.753,1.453 0.342,1.048 0.666,1.911 0.535,3.038 -0.188,1.623 -1.157,2.938 -2.426,3.899 -1.615,1.224 -3.581,0.695 -5.447,0.462 -0.94,-0.406 -1.832,-0.908 -2.737,-1.387 -0.696,-1.276 -0.646,-1.276 -0.363,-2.712 1.979,-2.654 4.597,-3.786 7.685,-4.753 z m 401.721,104.938 c 3.111,3.133 5.203,8.259 6.345,12.457 -1.115,5.818 -3.656,10.719 -8.442,14.381 -5.93,4.536 -12.762,4.979 -19.865,4.056 -2.926,-0.393 -5.77,-1.189 -8.629,-1.909 7.768,-2.35 15.687,-4.349 21.816,-9.984 5.527,-5.082 8.474,-11.523 8.775,-19.001 z m -43.959,-174.795 c 2.843,2.066 5.546,3.99 7.746,6.774 4.403,21.649 1.145,60.648 -4.178,82.029 -1.788,7.186 -4.465,13.871 -6.901,20.829 -1.367,3.904 -1.573,8.277 -3.563,11.907 -3.738,6.32 -8.027,12.537 -11.065,19.225 -2.124,4.676 -3.451,9.629 -5.344,14.396 -4.279,-7.553 -6.741,-16.638 -8.747,-25.037 -2.051,-8.582 -4.067,-17.341 -5.116,-26.108 -1.432,-11.967 -1.532,-23.986 -1.651,-36.02 -0.347,-34.97 2.38,-70.216 6.263,-104.951 4.33,5.043 7.99,10.67 12.076,15.91 3.058,3.919 7.945,8.32 9.877,12.859 1.957,4.596 2.382,10.64 3.045,15.596 3.725,27.817 3.339,57.232 -2.982,84.641 -2.11,9.151 -7.849,23.735 -6.324,32.766 l 0.526,0.147 c 2.226,-2.566 3.179,-5.978 4.088,-9.181 2.87,-9.97 6.214,-19.781 8.496,-29.912 4.607,-20.457 6.029,-42.997 5.451,-63.962 -0.202,-7.334 -1.353,-14.59 -1.697,-21.908 z m -347.212,-37.971 c 2.169,0.613 4.357,1.145 6.564,1.596 2.208,0.451 4.43,0.82 6.665,1.107 2.235,0.286 4.478,0.489 6.728,0.609 2.251,0.12 4.502,0.157 6.755,0.11 -5.479,5.11 -10.382,10.489 -14.526,16.755 -4.294,6.495 -8.036,14.271 -13.685,19.71 -7.011,6.75 -15.709,7.643 -24.925,7.413 -4.766,-0.823 -8.662,-2.25 -12.51,-5.236 -6.343,-4.922 -10.74,-12.466 -11.615,-20.474 -0.964,-8.825 2.914,-13.156 7.9,-19.598 11.284,2.711 31.854,2.821 42.649,-1.992 z m 307.644,-34.483 c 0.011,-0.057 0.021,-0.114 0.032,-0.171 l -0.155,1.068 z m 252.129,83.169 c 2.143,-1.813 4.814,-4.884 5.062,-7.808 0.096,-1.13 0.141,-1.121 -0.629,-2.017 l -1.158,0.094 c -0.888,0.819 -1.55,1.513 -2.226,2.53 -18.63,7.204 -38.889,10.159 -57.635,1.774 -10.341,-4.626 -21.088,-11.101 -30.166,-17.89 -6.889,-5.152 -12.654,-11.312 -19.081,-16.958 -20.954,-18.408 -42.088,-36.628 -60.228,-57.946 -4.859,-5.81 -9.488,-11.798 -13.886,-17.964 -3.266,-4.662 -6.33,-9.703 -10.011,-14.038 4.368,10.896 8.901,22.107 14.16,32.596 11.134,22.204 37.443,65.813 55.471,81.573 l -6.632,0.964 c 25.961,11.489 48.954,26.84 78.08,29.478 9.87,0.893 19.564,0.262 28.873,-3.302 6.346,-2.43 14.024,-4.988 18.547,-10.232 0.531,-0.249 1.006,-0.471 1.459,-0.854 z m -76.915,-64.981 c 1.583,-0.269 2.51,-1.433 3.52,-2.565 -4.65,0.389 -13.222,1.766 -17.237,-0.95 0.097,-1.333 0.111,-2.334 1.232,-3.254 2.882,-2.364 8.25,-1.385 11.637,-0.764 2.794,0.511 7.409,1.445 9.097,3.884 l -0.186,0.902 c -0.398,0.066 -0.858,0.191 -1.259,0.174 -1.149,0.381 -1.857,0.599 -2.691,1.499 0.831,0.602 0.462,0.536 1.193,0.577 3.095,0.172 8.824,-0.726 10.977,-3.195 0.857,-0.983 0.828,-1.461 0.724,-2.646 -0.462,-0.723 -0.871,-1.303 -1.561,-1.83 -6.556,-5.008 -20.45,-6.322 -28.411,-5.308 -2.759,0.351 -6.071,1.046 -7.805,3.448 -0.828,1.147 -0.882,1.314 -0.705,2.64 1.937,2.566 5.023,3.743 7.909,4.912 3.804,2.801 9.005,3.251 13.566,2.476 z m 65.537,-76.546 c 3.514,1.638 7.828,4.267 11.641,4.817 0.883,0.252 1.991,0.662 2.925,0.625 1.898,-0.076 3.616,-1.225 4.976,-2.474 1.419,-1.303 2.756,-3.217 2.811,-5.198 -2.689,-2.124 -7.144,4.162 -10.079,4.2 -1.074,-0.392 -1.263,-0.487 -1.996,-1.355 0.324,-1.831 2.349,-2.503 2.489,-4.037 l -3.914,0.318 c -3.064,0.458 -5.924,2.115 -8.853,3.104 z m -611.61,-66.765 0.478,0.504 c 2.995,-2.528 5.543,-6.879 5.796,-10.865 0.084,-1.322 0.054,-1.977 -0.831,-2.964 -2.875,3.513 -4.518,8.91 -5.443,13.325 z m 638.527,-1.581 c 0.746,0.526 0.589,0.419 1.289,0.765 -0.07,-4.544 -1.714,-10.958 -5.059,-14.167 -0.706,-0.677 -1.46,-1.086 -2.365,-1.431 0.881,4.894 1.768,11.756 6.135,14.833 z m -202.411,325.05 0.231,0.702 c 1.32,0.44 2.573,0.338 3.941,0.299 0.238,0.022 0.477,0.04 0.715,0.066 1.048,0.114 2.004,0.437 3.01,0.733 1.558,0.457 3.197,0.964 4.77,0.246 0.593,-0.272 0.806,-0.901 0.936,-1.51 0.147,-0.688 0.014,-1.639 -0.022,-2.349 0.679,-1.019 1.737,-1.306 2.822,-1.754 l -0.656,-0.358 c -4.71,1.161 -11.768,1.225 -15.747,3.925 z m 206.437,-301.664 c 0.72,1.843 1.813,4.533 3.236,5.862 1.694,-3.55 0.128,-9.018 -1.137,-12.616 -0.682,-1.94 -1.103,-3.446 -3.02,-4.482 -1.589,3.699 -0.492,7.614 0.921,11.236 z m -647.478,3.38 c 0.65,0.776 0.998,1.094 1.961,1.423 2.311,-2.301 2.811,-4.112 2.89,-7.392 0.054,-2.234 -0.52,-5.93 -2.104,-7.637 -0.157,-0.169 -0.356,-0.294 -0.533,-0.44 -1.85,4.026 -3.33,9.665 -2.214,14.046 z m 477.791,305.277 c 0.237,1.374 0.663,1.765 1.793,2.582 4.19,3.029 10.772,5.898 15.892,6.634 l 0.628,-0.995 c -1.057,-2.882 -8.417,-6.264 -11.172,-7.553 -2.071,-0.968 -3.919,-1.502 -6.197,-1.635 z m -155.995,55.218 c 1.592,2.084 3.673,4.758 5.789,6.282 1.013,-3.512 -0.28,-6.923 -1.995,-10.034 -1.679,-3.044 -3.669,-5.758 -7.115,-6.726 -0.559,4.406 0.642,6.969 3.321,10.478 z m 180.756,45.438 c -1.073,2.348 -2.184,6.348 -0.912,8.828 0.454,0.886 1.432,1.587 2.199,2.195 l 0.978,-0.078 c 0.046,-0.743 0.091,-1.476 0.084,-2.221 -0.031,-3.163 0.712,-7.756 2.5,-10.405 1.722,-2.551 3.376,-5.096 5.458,-7.374 -0.205,-0.566 -0.053,-0.375 -0.338,-0.649 -4.821,1.865 -7.809,4.975 -9.969,9.704 z m -203.046,-96.615 c 0.508,0.694 1.084,1.055 1.809,1.491 1.08,0.081 2.122,0.174 3.205,0.109 0.256,-4.565 -0.14,-9.535 -3.483,-13.016 -1.046,-1.089 -2.182,-1.303 -3.622,-1.54 -0.679,3.947 -0.335,9.64 2.091,12.956 z m -163.639,-141.315 c 1.2,0.171 2.564,0.956 3.164,1.997 -0.049,1.355 -0.268,2.723 0.38,3.963 l 0.775,-0.212 c 3.353,-3.663 6.552,-8.796 8.804,-13.227 6.656,-8.217 13.94,-16.094 20.027,-24.745 7.259,-10.317 13.026,-21.616 18.851,-32.772 9.294,-17.802 18.673,-35.89 24.392,-55.237 -2.972,4.413 -6.054,8.748 -9.246,13.005 -3.192,4.257 -6.49,8.43 -9.893,12.52 -3.403,4.089 -6.907,8.09 -10.514,12.002 -3.606,3.912 -7.309,7.73 -11.108,11.455 -23.02,23.012 -65.921,57.822 -78.686,86.534 2.004,0.493 4.003,1.004 5.997,1.535 1.666,2.836 3.113,5.5 3.984,8.707 2.769,10.201 1.688,29.896 2.501,41.788 2.295,-7.545 2.618,-15.071 4.208,-22.707 3.156,-15.166 12.501,-34.673 24.776,-44.551 0.659,-0.092 0.86,-0.158 1.588,-0.055 z m 2.508,210.491 c 0.246,0.993 0.739,1.617 1.427,2.366 0.641,0.222 1.198,0.456 1.877,0.513 1.32,-3.876 2.555,-7.604 3.326,-11.629 -0.897,-2.499 -1.459,-5.018 -3.653,-6.695 -2.501,4.014 -4.142,10.734 -2.977,15.445 z m 502.104,-351.997 c -0.005,1.462 0.238,2.466 0.872,3.769 0.753,0.589 1.482,1.149 2.305,1.637 0.477,-0.32 1.074,-0.51 1.43,-0.961 1.306,-1.65 2.982,-11.145 3.468,-13.572 0.173,-0.866 0.211,-1.258 -0.045,-2.092 -0.514,-0.412 -1.057,-0.9 -1.601,-1.269 -3.391,3.306 -6.412,7.535 -6.429,12.488 z m -496.785,323.833 c 0.773,0.309 1.423,0.525 2.242,0.716 3.585,-1.639 5.712,-5.618 7.096,-9.192 0.91,-2.352 1.881,-5.635 0.756,-8.07 -0.385,-0.835 -0.91,-1.288 -1.602,-1.849 -1.68,2.961 -8.992,15.827 -8.492,18.395 z m 363.112,65.693 0.381,0.896 c 1.019,0.168 1.695,0.132 2.705,-0.075 1.695,-2.318 9.006,-13.55 9.051,-15.945 -0.726,-1.318 -1.382,-2.369 -2.861,-2.956 -3.399,5.075 -8.78,11.916 -9.276,18.08 z m -362.368,-18.888 c 1.916,2.268 3.383,3.901 4.586,6.684 -1.067,-0.168 -2.505,-1.798 -3.362,-2.552 0.154,0.237 0.311,0.473 0.461,0.713 1.308,2.1 1.32,4.542 3.376,6.139 0.768,1.059 1.408,2.128 2.81,2.396 1.179,0.226 1.512,-0.352 2.332,-1.066 0.986,-2.84 0.216,-5.834 -1.079,-8.465 -1.558,-3.166 -4.763,-7.02 -8.238,-8.141 -0.687,-0.222 -1.405,-0.306 -2.115,-0.407 -0.183,1.93 -0.065,3.167 1.229,4.699 z m 365.975,-60.759 c 1.392,3.558 4.715,9.271 8.538,10.633 0.755,0.269 0.832,0.263 1.59,0.432 1.113,-3.852 -1.841,-7.931 -3.677,-11.255 -1.441,-2.61 -3.955,-8.828 -6.871,-9.793 -1.517,3.508 -0.954,6.47 0.42,9.983 z M 66.093,316.63817 c -1.163,2.24 -0.715,5.172 -0.027,7.513 0.806,2.742 1.87,4.97 4.301,6.545 1.396,0.182 1.441,0.142 2.673,-0.554 0.711,-1.218 1.247,-2.363 1.762,-3.678 -0.403,-3.679 -0.648,-7.004 -2.809,-10.144 l -2.23,-0.375 c 0.012,3.289 -0.681,8.537 1.455,11.247 l 1.073,0.25 c 1.18,-1.578 0.932,-3.318 0.646,-5.223 -0.283,-1.876 -1.096,-4.023 -0.944,-5.899 l -2.23,-0.375 c -1.654,-0.022 -2.232,-0.19 -3.67,0.693 z m 329.864,361.823 c 1.236,1.765 3.414,2.88 4.852,4.536 2.773,3.192 4.365,7.451 7.215,10.544 0.801,0.87 1.196,0.905 2.354,1.145 0.574,0.12 1.258,0.116 1.837,0.147 0.81,-1.268 1.097,-2.162 0.697,-3.668 -1.282,-4.836 -7.904,-11.506 -12.305,-13.702 -1.171,-0.584 -2.355,-0.731 -3.649,-0.778 z m -18.021,-38.115 c 0.767,1.058 1.372,1.593 2.685,1.81 1.479,-6.399 -1.258,-13.75 -4.645,-19.216 -1.317,-2.127 -3.085,-4.683 -5.322,-5.898 -1.047,6.81 3.277,17.779 7.282,23.304 z M 31.387,394.52317 c 0.273,1.322 0.413,1.926 1.598,2.779 0.353,0.255 0.849,0.388 1.261,0.521 2.824,-2.503 12.258,-11.955 12.711,-15.436 0.144,-1.107 -0.052,-2.006 -0.947,-2.77 -0.354,-0.303 -1.236,-0.707 -1.699,-0.852 -4.519,3.428 -11.713,10.073 -12.924,15.758 z m 171.4,8.15 c -0.764,1.02 -1.182,2.142 -0.89,3.424 0.384,1.679 1.888,2.401 3.216,3.266 0.071,0.046 0.14,0.094 0.21,0.141 3.449,-1.729 6.275,-4.973 9.258,-7.419 2.808,-2.302 5.845,-4.005 9.087,-5.616 l 0.227,-0.556 c -0.908,-0.681 -1.458,-0.756 -2.578,-0.856 -5.344,0.783 -15.148,3.1 -18.53,7.616 z m 531.344,-20.275 c 1.464,4.878 7.902,13.049 12.548,15.257 0.809,0.384 1.673,0.652 2.53,0.905 l 1.161,-0.631 c 0.577,-2.457 -0.384,-3.988 -1.664,-6.067 -2.708,-4.397 -7.341,-10.524 -12.451,-11.93 -1.247,0.885 -1.73,0.946 -2.124,2.466 z m -150.11,291.564 c 0.009,3.657 0.929,8.359 3.677,11.008 0.505,0.488 1.048,0.699 1.702,0.911 1.298,-0.423 1.791,-0.739 2.406,-2.009 1.538,-3.178 1.239,-7.383 1.258,-10.844 0.033,-2.876 0.129,-5.575 -0.657,-8.371 l -0.522,0.03 c -1.862,4.401 -1.247,11.646 -3.327,15 -0.922,-0.492 -0.905,-1.004 -1.191,-1.99 -1.23,-4.247 3.632,-14.017 0.851,-16.016 -0.046,-0.033 -0.101,-0.052 -0.151,-0.078 -3.081,3.039 -4.055,8.153 -4.046,12.359 z m -12.172,-269.406 c 2.272,1.426 2.232,4.49 4.457,5.776 1.764,0.207 2.947,-0.592 4.431,-1.409 1.202,-1.189 1.357,-1.24 1.618,-2.888 -0.722,-2.561 -2.786,-3.858 -5.015,-5.08 -5.946,-3.261 -14.774,-6.233 -21.586,-5.427 2.375,4.693 11.924,6.41 16.095,9.028 z m -145.766,306.812 c 2.292,1.58 5.373,3.249 7.081,5.494 4.315,5.67 1.548,7.304 10.138,7.196 -1.36,-6.675 -6.085,-11.802 -11.644,-15.469 -3.459,-2.282 -8.054,-4.472 -12.227,-4.733 0.695,3.788 3.679,5.463 6.652,7.512 z m 71.068,33.044 c -0.584,0.918 -0.335,0.962 -0.058,1.853 1.92,1.167 3.074,0.992 5.156,0.488 3.492,-0.846 6.419,-1.977 10.107,-1.763 3.436,0.918 8.687,2.948 12.222,1.508 0.682,-0.278 0.594,-0.523 0.922,-1.239 -1.515,-2.738 -5.064,-4.396 -7.963,-5.237 -2.435,-0.706 -4.891,-0.676 -7.389,-0.434 -4.065,0.553 -10.497,0.886 -12.997,4.824 z m 42.726,-10.808 c -0.988,1.35 -1.759,2.995 -1.397,4.692 0.176,0.823 0.562,0.942 1.163,1.453 1.666,0.262 2.728,-0.15 4.039,-1.132 0.441,-0.331 0.857,-0.694 1.279,-1.05 1.532,-1.842 3.587,-4.498 6.051,-4.934 -0.559,1.375 -1.59,2.269 -2.616,3.3 3.341,-1.55 13.289,-5.23 15.035,-8.631 0.218,-0.425 0.228,-0.693 0.293,-1.133 -0.902,-1.135 -1.85,-1.507 -3.303,-1.618 -0.142,-0.011 -0.285,-0.003 -0.428,-0.005 -6.577,1.229 -15.956,3.379 -20.116,9.058 z m -84.484,0.703 c 4.211,2.765 10.461,2.585 15.028,4.805 2.812,1.368 4.365,5.027 7.041,6.262 1.31,0.605 3.481,-0.061 4.808,-0.387 0.602,-1.366 0.437,-2.173 -0.08,-3.606 -1.424,-3.944 -8.684,-7.128 -12.399,-8.508 -5.357,-1.99 -10.53,-2.312 -16.182,-1.885 0.339,1.548 0.35,2.377 1.784,3.319 z m 202.218,-320.148 c 0.369,-0.851 0.619,-1.271 1.391,-1.837 4.321,-3.166 15.247,0.708 20.054,1.896 l 1.901,-1.136 c 0.07,-0.617 0.283,-1.025 -0.121,-1.565 -2.421,-3.232 -13.042,-4.596 -16.94,-4.784 -4.554,-0.221 -11.018,0.455 -14.542,3.507 -0.928,0.804 -1.155,1.338 -1.332,2.522 0.789,1.743 2.405,2.535 4.127,3.18 1.93,0.722 3.992,0.977 6.021,1.269 -0.34,-1.067 -0.511,-1.932 -0.559,-3.052 z m -369.326,28.44 c -0.914,1.439 -2.02,3.314 -1.664,5.078 0.144,0.716 0.538,0.968 1.192,1.263 0.512,0.23 1.423,0.317 1.947,0.41 3.472,-4.001 6.586,-8.564 10.295,-12.317 3.345,-3.385 11.636,-6.675 12.947,-11.188 l -0.463,-0.737 -1.943,-0.177 c -9.054,2.012 -17.421,9.972 -22.311,17.668 z m -28.926,304.042 c 0.887,1.565 1.74,2.276 3.509,2.715 3.722,0.926 7.801,-0.212 11.5,0.737 4.972,1.276 9.27,4.452 14.296,5.752 0.986,-1.462 0.867,-1.774 0.855,-3.478 -1.728,-3.554 -6.791,-5.436 -10.356,-6.685 -6.066,-2.124 -12.521,-2.509 -18.892,-2.177 -0.779,1.308 -0.853,1.612 -0.912,3.136 z m -15.727,-7.956 c 1.214,-0.281 1.457,-0.911 2.035,-1.882 0.181,-2.172 -0.282,-3.756 -1.384,-5.644 -2.726,-4.674 -8.644,-9.576 -13.888,-10.923 -2.011,-0.517 -5.183,-0.848 -6.993,0.253 -0.517,1.369 -0.281,1.61 0.139,3.039 2.7,5.542 6.54,10.222 12.455,12.582 2.037,1.194 5.146,3.151 7.636,2.575 z m -16.53,-14.498 c 4.278,1.418 10.626,3.68 12.754,8.027 0.314,0.643 0.292,0.73 0.388,1.34 -0.642,1.088 -1.124,1.667 -2.345,2.072 -4.084,-2.561 -8.217,-7.419 -10.797,-11.439 z M 95.218,410.97217 c -0.539,0.697 -0.438,0.92 -0.506,1.749 0.873,0.982 1.356,1.322 2.703,1.453 3.516,0.344 10.814,-3.556 16.209,-3.768 3.769,0.31 5.48,0.228 8.259,3.09 0.971,0.999 1.182,1.26 2.592,1.517 2.057,-0.67 4.292,-1.692 5.333,-3.7 -0.07,-1.332 -0.207,-1.858 -1.25,-2.761 -3.835,-3.32 -10.001,-3.979 -14.838,-3.464 -4.595,0.435 -15.557,2.075 -18.502,5.884 z m 408.419,54.709 c 0.481,1.31 0.97,1.754 2.241,2.385 3.753,1.863 7.263,2.671 10.603,5.483 5.662,4.768 9.629,13.585 13.557,16.647 1.135,0.885 2.138,1.063 3.505,1.282 1.029,-1.438 1.571,-2.265 1.275,-4.07 -1.131,-6.905 -10.946,-14.851 -16.517,-18.523 -3.898,-2.568 -8.025,-4.778 -12.807,-4.848 -1.061,0.562 -1.289,0.608 -1.857,1.644 z m -299.387,51.295 c -0.437,1.936 -0.071,3.219 1.015,4.822 1.268,0.96 2.461,0.989 3.982,1.149 3.138,-3.795 3.119,-9.68 6.119,-13.798 2.843,-3.9 9.287,-6.317 11.411,-10.349 0.471,-0.895 0.612,-1.448 0.476,-2.453 -0.121,-0.89 -0.623,-1.131 -1.224,-1.741 -0.773,-0.159 -1.473,-0.317 -2.264,-0.341 -7.717,4.904 -17.389,13.299 -19.515,22.711 z m 44.373,-282.147 c -1.89,3.38 -4.21,6.509 -6.089,9.877 l 4.87,2.762 c 1.769,1.047 3.569,2.06 5.305,3.16 0.837,-10.415 4.025,-22.537 8.063,-32.253 1.396,-3.361 5.023,-7.619 5.43,-10.978 -7.951,8.875 -11.897,17.269 -17.579,27.432 z m -5.227,242.991 c -0.978,1.582 -1.481,3.017 -1.693,4.851 0.545,1.093 1.134,1.886 2.419,2.194 0.517,0.123 0.724,0.067 1.203,0.014 4.139,-2.67 4.742,-7.223 7.905,-10.698 5.096,-5.597 12.461,-7.405 18.897,-10.844 1.211,-0.647 1.741,-1.183 2.333,-2.465 0.048,-1.396 -0.006,-1.418 -0.826,-2.561 -0.856,-0.243 -1.376,-0.366 -2.28,-0.359 -10.728,2.881 -22.041,10.288 -27.958,19.868 z m 64.853,269.436 c -0.989,1.3 -2.01,3.191 -1.757,4.892 0.18,1.208 0.703,1.472 1.619,2.084 1.884,0.077 3.021,-0.322 4.382,-1.589 0.923,-0.86 1.672,-2.057 2.398,-3.084 3.753,-3.409 10.244,-6.961 15.536,-6.507 0.648,0.056 1.121,0.25 1.671,0.582 0.077,0.833 0.01,1.378 -0.215,2.183 1.745,0.275 3.753,-1.035 5.121,-2.025 1.24,-0.897 2.11,-1.806 2.434,-3.36 0.168,-0.8 -0.172,-1.203 -0.473,-1.924 -2.464,-1.916 -5.407,-1.922 -8.395,-1.561 -0.309,0.037 -0.618,0.081 -0.928,0.122 -7.512,1.11 -16.57,3.846 -21.393,10.187 z m 226.103,-496.091 6.128,-4.855 3.828,-3.065 c -6.912,-13.001 -14.455,-26.067 -25.097,-36.427 7.697,14.809 14.067,27.221 15.141,44.347 z m -183.747,469.005 c -0.6,2.139 -0.929,4.962 0.22,6.991 0.072,0.128 0.151,0.252 0.238,0.371 0.086,0.119 0.179,0.233 0.278,0.341 0.1,0.109 0.206,0.211 0.317,0.307 0.111,0.096 0.228,0.185 0.35,0.268 0.121,0.083 0.247,0.158 0.378,0.225 0.131,0.068 0.265,0.128 0.402,0.181 0.137,0.052 0.277,0.096 0.42,0.132 0.143,0.036 0.287,0.064 0.433,0.083 1.203,0.165 2.794,-0.072 3.863,-0.65 1.332,-0.661 3.233,-1.315 4.092,-2.511 -1.982,-0.548 -1.615,1.024 -3.589,-0.665 -1.07,-2.603 -0.485,-4.789 0.536,-7.348 4.034,-10.111 11.509,-9.997 15.589,-15.28 0.572,-0.741 0.514,-1.761 0.18,-2.596 -0.461,-1.158 -0.756,-1.519 -1.702,-2.25 l -1.127,-10e-4 c -9.121,4.93 -17.935,11.919 -20.878,22.402 z M 569.21,88.406175 c 8.75,2.86 18.417,3.905 27.393,6.019 9.434,2.222 18.642,6.044995 27.513,9.915995 5.832,2.545 11.936,5.522 17.284,9.009 3.765,2.454 7.318,5.79 11.405,7.656 -5.927,-11.942 -30.489,-22.495995 -43.062,-26.672995 -10.808,-3.591 -29.782,-7.12 -41.37,-6.208 z M 146.277,410.83017 c -0.821,1.292 -0.78,2.136 -0.396,3.565 1.174,1.311 2.604,2.242 4.411,2.31 0.852,0.033 1.585,-0.183 2.218,-0.787 3.88,-3.694 5.109,-6.163 11.083,-6.573 1.633,-0.112 3.295,-0.083 4.932,-0.083 l 0.736,0.165 c 1.888,0.437 4.106,0.735 5.206,2.527 0.468,0.763 0.232,1.67 0.207,2.531 2.822,0.104 5.462,-0.205 7.582,-2.279 1.014,-0.993 1.788,-2.386 1.659,-3.849 -0.117,-1.332 -0.969,-2.459 -2.031,-3.207 -4.194,-2.952 -15.451,-2.704 -20.455,-2.101 -5.551,0.992 -11.914,2.683 -15.152,7.781 z m 403.071,94.307 c -0.53,1.517 -0.26,2.616 0.455,3.998 1.772,3.431 5.047,6.344 7.343,9.454 -0.684,-2.43 -1.833,-5.276 -1.709,-7.804 0.95,-0.708 1.204,-0.811 2.478,-0.703 5.111,0.43 18.565,8.83 21.441,12.954 1.309,1.876 1.88,4.357 2.458,6.54 2.733,1.679 5.913,3.287 9.17,3.441 l 0.784,-0.385 c -1.571,-6.39 -14.636,-20.737 -20.338,-24.2 -5.296,-3.216 -11.84,-4.8 -17.993,-4.846 -1.815,0.347 -2.665,0.33 -4.089,1.551 z m -422.413,-383.807 c -0.915,1.048 -1.757,2.151 -2.527,3.31 2.478,-1.676 4.978,-3.308 7.273,-5.233 23.701,-17.323 52.839,-25.651995 81.377,-30.941995 -3.613,-0.036 -7.326,-0.228 -10.92,0.14 -27.346,2.087 -56.727,11.367 -75.203,32.724995 z m -100.401,391.326 c 0.524,5.129 7.208,11.383 11.352,14.157 3.935,2.635 7.239,3.591 11.848,2.557 0.437,-0.098 0.869,-0.219 1.301,-0.336 1.589,-1.048 2.338,-2.073 2.65,-3.979 0.398,-2.434 -0.76,-4.718 -2.185,-6.606 -4.12,-5.457 -10.509,-9.843 -17.383,-10.619 -1.919,-0.217 -3.831,-0.121 -5.744,0.097 -1.231,1.549 -2.054,2.62 -1.839,4.729 z m 6.889,2.779 c 1,-0.079 1.998,-0.062 2.994,0.053 2.186,0.269 4.616,1.67 5.949,3.424 1.259,1.657 1.545,2.918 1.244,4.947 -1.469,-0.154 -2.671,-0.377 -3.97,-1.102 -2.762,-1.543 -5.375,-4.223 -6.217,-7.322 z m 566.822,-323.555 2.603,-3.822 3.802,-3.69 c -5.38,-4.76 -10.168,-10.117 -15.811,-14.593 -9.661,-7.664 -31.71,-19.16 -43.778,-21.809 19.373,10.674 39.824,26.292 53.184,43.914 z m -391.119,21.554 c 1.811,1.904 3.591,3.842 5.532,5.615 1.092,1.16 2.22,2.301 3.252,3.513 4.089,-12.898 18.823,-34.7 27.726,-44.941 0.646,-0.743 3.918,-3.953 3.604,-4.667 -17.01,10.277 -29.556,23.736 -40.114,40.48 z m -19.605,-41.404 c -4.157,3.699 -7.643,8.727 -12.059,11.963 l 4.377,3.83 3.172,3.025 c 9.132,-11.414 19.269,-22.261 30.963,-31.102 4.398,-3.324 9.167,-6.216 13.713,-9.338 0.802,-0.551 2.583,-1.45 2.763,-2.329 l -0.274,-0.134 c -15.939,6.207 -29.702,12.559 -42.655,24.085 z m 378.642,50.017 c 0.113,0.312 0.233,0.622 0.345,0.934 0.072,0.202 0.137,0.406 0.205,0.609 0.834,-1.37 1.609,-2.794 2.653,-4.013 l 4.939,-5.451 c -9.76,-15.226 -22.214,-27.547 -37.704,-36.9 -2.392,-1.444 -5.291,-3.615 -7.953,-4.391 8.886,8.824 33.71,38.668 37.515,49.212 z M 58.32,538.71317 c -0.648,1.115 -0.659,1.847 -0.266,3.066 1.353,4.192 9.227,7.14 13.104,8.477 5.574,1.923 10.608,3.41 16.562,3.141 2.609,-0.642 5.959,-1.741 7.556,-4.105 0.662,-0.98 0.562,-1.913 0.231,-2.998 -1.203,-3.954 -9.777,-8.049 -13.499,-9.37 -5.014,-1.78 -10.326,-2.212 -15.614,-1.947 -2.426,0.623 -6.706,1.379 -8.074,3.736 z m 9.961,2.768 c 4.488,-0.22 8.971,0.183 13.183,1.861 1.898,0.757 4.224,2.053 4.86,4.153 0.54,1.782 -0.231,3.265 -1.086,4.752 -4.021,-0.388 -7.121,-1.879 -10.652,-3.721 -2.511,-1.309 -6.495,-3.317 -7.359,-6.085 z m 104.756,57.148 c -0.572,1.409 -0.234,2.873 0.477,4.153 4.065,7.318 17.553,14.376 25.483,16.261 1.94,0.461 3.846,0.426 5.824,0.347 1.972,-1.017 3.702,-1.738 4.486,-3.97 0.555,-1.581 0.268,-3.076 -0.544,-4.501 -4.533,-7.963 -16.038,-13.67 -24.642,-15.555 -2.312,-0.506 -4.587,-0.449 -6.933,-0.366 -1.862,0.786 -3.352,1.663 -4.151,3.631 z m 7.909,3.118 c 5.606,0.631 11.836,2.359 16.109,6.227 2.391,2.165 3.749,4.447 3.883,7.684 -5.923,-0.696 -14.366,-4.834 -18.532,-9.129 -1.524,-1.572 -1.508,-2.732 -1.46,-4.782 z m 567.678,-178.528 c -1.171,7.009 0.779,14.936 5.142,20.605 2.112,2.745 4.419,4.811 7.892,5.454 3.087,-1.519 4.697,-3.194 5.819,-6.496 2.507,-7.372 0.634,-19.062 -2.913,-25.911 -1.324,-2.556 -3.697,-5.283 -6.609,-5.992 -0.536,-0.13 -0.93,-0.092 -1.476,-0.088 -4.661,3.195 -6.914,6.805 -7.855,12.428 z m 9.64,-5.49 c 0.994,0.005 1.435,0.189 2.289,0.69 2.881,3.888 3.16,10.456 3.126,15.204 -0.02,2.929 -0.111,4.831 -2.314,6.984 -1.302,-0.478 -2.297,-0.884 -3.234,-1.943 -2.879,-3.257 -3.691,-8.752 -3.502,-12.926 0.174,-3.858 0.828,-5.415 3.635,-8.009 z m -748.278,49.019 c -1.58,7.457 1.498,17.086 5.735,23.241 1.908,2.773 4.861,5.733 8.343,6.256 1.862,0.28 3.581,-0.147 5.372,-0.619 2.896,-2.565 4.495,-4.807 4.832,-8.756 0.563,-6.581 -2.864,-14.513 -7.138,-19.433 -2.614,-3.01 -6.327,-5.809 -10.438,-6.031 -1.036,-0.056 -2.077,-0.022 -3.112,0.037 -2.204,1.462 -3.04,2.689 -3.594,5.305 z m 6.529,2 c 1.181,0.109 2.46,0.322 3.555,0.802 2.414,1.06 4.246,4.049 5.167,6.398 1.598,4.071 2.062,9.022 0.209,13.044 -0.954,0.128 -1.602,0.227 -2.542,-0.059 -2.239,-0.681 -3.988,-3.67 -4.872,-5.638 -1.899,-4.225 -3.184,-10.109 -1.517,-14.547 z m -2.316,-50.634 c -3.32,6.233 -4.798,16.776 -2.475,23.517 0.818,2.372 2.576,5.198 4.916,6.333 0.955,0.462 2.092,0.551 3.131,0.687 l 0.561,0.076 c 4.488,-1.634 6.618,-4.114 8.655,-8.413 3.297,-6.961 4.195,-15.812 1.666,-23.172 -0.856,-2.492 -2.637,-5.183 -5.051,-6.397 -0.677,-0.34 -0.808,-0.288 -1.577,-0.389 -4.832,1.46 -7.388,3.181 -9.826,7.758 z m 7.362,-1.051 c 1.038,0.213 1.914,0.326 2.734,1.067 2.147,1.941 2.423,5.441 2.273,8.129 -0.275,4.933 -1.66,10.091 -5.395,13.488 -1.105,0.385 -1.647,0.498 -2.799,0.261 -1.017,-1.017 -1.387,-1.631 -1.606,-3.079 -0.858,-5.671 1.579,-15.241 4.793,-19.866 z m 724.238,56.308 c -3.82,5.405 -6.354,13.056 -5.057,19.646 0.51,2.592 1.851,4.781 4.06,6.265 1.555,1.044 3.038,1.246 4.87,1.313 5.23,-1.395 7.715,-3.995 10.363,-8.657 3.002,-5.288 7.8,-15.594 6.253,-21.749 -0.459,-1.828 -1.476,-3.481 -3.208,-4.355 -1.446,-0.73 -3.247,-0.804 -4.836,-0.789 -5.489,1.026 -9.219,3.763 -12.445,8.326 z m 11.66,-0.516 c 1.329,-0.156 2.09,-0.211 3.4,0.197 0.951,1.228 1.21,2.034 0.993,3.6 -0.751,5.403 -4.906,12.453 -9.101,15.776 -0.445,10e-4 -0.97,0.017 -1.403,-0.06 -1.118,-0.198 -2.086,-0.478 -2.696,-1.508 -0.969,-1.637 -0.516,-4.286 -0.031,-6.001 1.466,-5.174 4.127,-9.377 8.838,-12.004 z m -611.704,80.752 c -0.199,8.244 5.661,20.413 11.532,26.069 2.612,2.515 5.486,4.086 9.174,3.85 0.888,-0.057 1.663,-0.264 2.511,-0.519 2.841,-2.618 3.58,-4.651 3.756,-8.552 0.341,-7.552 -3.488,-15.51 -8.645,-20.853 -3.587,-3.717 -8.799,-7.323 -14.139,-7.298 -0.362,0.003 -0.724,0.013 -1.085,0.032 -2.246,2.189 -3.028,4.111 -3.104,7.271 z m 6.826,1.088 c 1.582,0.352 3.138,0.712 4.55,1.539 3.749,2.195 6.891,6.196 7.958,10.418 0.844,3.343 0.449,6.331 -1.239,9.311 -0.725,0.239 -1.441,0.507 -2.221,0.362 -2.515,-0.467 -4.63,-4.024 -5.719,-6.057 -2.424,-4.526 -4.782,-10.482 -3.329,-15.573 z m -7.071,-55.167 c -2.223,7.867 -3.018,24.046 1.333,31.159 1.125,1.84 2.946,3.638 5.139,4.078 1.18,0.237 2.527,0.009 3.713,-0.128 3.537,-1.968 5.057,-4.15 6.238,-8.032 2.539,-8.342 1.389,-22.39 -2.839,-30.069 -1.152,-2.091 -3.014,-4.441 -5.479,-4.989 -0.703,-0.156 -1.444,-0.166 -2.158,-0.198 -3.754,2.071 -4.784,4.063 -5.947,8.179 z m 6.376,0.611 c 2.813,1.878 3.78,3.934 4.478,7.205 1.218,5.713 1.223,14.233 -2.035,19.224 -1.598,-0.335 -3.232,-0.562 -4.162,-2.027 -3.304,-5.209 0.213,-18.798 1.719,-24.402 z m 483.244,-340.359 c 1.104,-1.305 2.175,-2.674 3.342,-3.921 l 3.821,-3.378 c -32.489,-24.815 -59.352,-34.91 -100.643,-34.918 22.806,0.729 77.749,25.974 93.48,42.217 z m -429.965,-39.265 c -23.697,4.322 -46.561,16.347 -65.481,31.061 2.937,1.405 5.1,3.395 7.367,5.689 l 1.555,1.354 c 2.953,-1.196 13.261,-9.91 17.137,-12.304 19.697,-12.167 47.887,-24.524 70.776,-28.354 l -0.254,-0.366 c -1.016,-0.032 -2.041,-0.135 -3.044,0.034 -9.36,0.714 -18.813,1.2 -28.056,2.886 z m 467.912,428.083 c 0.762,-0.972 1.107,-2.375 0.862,-3.59 -0.466,-2.32 -2.7,-4.261 -4.527,-5.551 -10.082,-7.118 -29.379,-10.006 -41.333,-7.947 -3.769,0.649 -9.011,2.202 -11.143,5.699 -0.59,0.969 -0.896,2.099 -0.488,3.203 1.007,2.719 5.521,4.273 7.956,5.378 12.543,5.981 28.707,9.036 42.393,5.919 2.106,-0.675 4.848,-1.285 6.28,-3.111 z m -45.262,-6.397 c 5.698,-4.281 12.898,-3.42 19.573,-2.476 5.018,0.709 12.547,1.784 15.818,6.049 0.633,0.839 1.187,1.729 1.661,2.668 l -0.339,1.027 c -0.632,0.643 -1.048,0.97 -1.935,1.239 -5.147,1.564 -20.997,-2.398 -26.274,-4.369 -2.952,-1.102 -5.737,-2.641 -8.504,-4.138 z m 69.744,-14.819 c -1.668,2.515 -2.95,5.656 -2.343,8.722 0.334,1.691 1.268,3.15 2.716,4.099 3.678,2.412 9.988,1.98 14.142,1.054 0.171,-0.038 0.34,-0.088 0.51,-0.132 7.48,-2.703 22.241,-10.176 25.796,-17.594 0.755,-1.575 0.863,-3.159 0.155,-4.774 -0.93,-2.124 -3.232,-3.436 -5.344,-4.084 -3.857,-1.183 -8.298,-1.057 -12.276,-0.639 -8.876,1.668 -18.178,5.538 -23.356,13.348 z m 24.319,-7.286 c 1.006,0.071 2.003,0.206 2.991,0.405 1.636,0.321 2.372,0.785 3.281,2.164 -0.026,0.639 0.01,0.72 -0.229,1.402 -1.426,4.058 -13.98,10.12 -18.098,11.404 -1.128,0.121 -2.453,0.274 -3.578,0.1 -1.24,-0.192 -1.699,-0.706 -2.328,-1.705 0.021,-1.157 0.322,-1.851 0.965,-2.784 3.342,-4.853 11.224,-9.969 16.996,-10.986 z M 606.19,251.34517 c -7.567,8.338 -10.741,18.144 -10.186,29.373 0.261,5.291 1.079,14.952 5.36,18.508 0.783,0.65 0.401,0.472 1.491,0.432 0.964,-2.521 -1.794,-8.753 -2.165,-11.895 -0.071,-0.581 -0.131,-1.164 -0.179,-1.747 -0.048,-0.583 -0.084,-1.167 -0.108,-1.752 -0.025,-0.585 -0.038,-1.171 -0.039,-1.756 -10e-4,-0.585 0.009,-1.171 0.032,-1.756 0.023,-0.585 0.057,-1.169 0.102,-1.753 0.046,-0.583 0.103,-1.166 0.172,-1.747 0.069,-0.581 0.15,-1.161 0.242,-1.74 0.093,-0.578 0.197,-1.154 0.312,-1.728 0.115,-0.574 0.242,-1.145 0.38,-1.714 0.139,-0.569 0.288,-1.135 0.449,-1.698 0.161,-0.563 0.333,-1.122 0.516,-1.678 0.183,-0.556 0.378,-1.108 0.583,-1.657 0.205,-0.548 0.422,-1.092 0.649,-1.631 0.227,-0.54 0.465,-1.075 0.714,-1.605 0.249,-0.53 0.508,-1.055 0.777,-1.574 0.269,-0.52 0.549,-1.034 0.84,-1.543 0.29,-0.508 0.59,-1.01 0.9,-1.507 0.311,-0.497 0.631,-0.987 0.961,-1.47 0.33,-0.484 0.669,-0.961 1.018,-1.431 0.349,-0.47 0.708,-0.933 1.075,-1.388 0.368,-0.456 0.745,-0.904 1.13,-1.345 0.385,-0.441 0.78,-0.873 1.183,-1.298 0.403,-0.425 0.814,-0.841 1.233,-1.25 0.419,-0.408 0.847,-0.808 1.283,-1.199 0.435,-0.391 0.878,-0.774 1.329,-1.147 0.451,-0.373 0.91,-0.738 1.375,-1.093 0.465,-0.355 0.938,-0.701 1.417,-1.037 0.479,-0.336 0.965,-0.662 1.457,-0.979 0.493,-0.317 0.991,-0.624 1.496,-0.921 0.505,-0.297 1.015,-0.583 1.531,-0.86 0.516,-0.276 1.037,-0.542 1.564,-0.797 0.527,-0.256 1.058,-0.501 1.595,-0.735 11.65,-5.213 27.337,-5.667 39.2,-0.949 5.409,2.152 10.004,5.196 14.676,8.622 11.834,9.979 19.491,26.408 20.72,41.723 0.688,8.572 -0.583,16.106 -2.22,24.446 -0.685,3.492 -1.943,7.673 -1.716,11.202 0.113,1.751 0.739,2.155 1.914,3.305 l 0.621,-0.141 c 1.009,-2.911 0.989,-5.908 2.142,-8.817 2.047,-5.163 5.573,-9.533 7.931,-14.532 -2.238,-7.925 -4.628,-18.127 -1.785,-26.036 -7.299,-7.759 -7.842,-17.404 -12.278,-26.564 -1.936,-3.997 -4.959,-6.703 -8.344,-9.454 -11.272,-9.16 -24.007,-13.05 -38.421,-13.409 -0.608,-0.015 -1.209,-0.011 -1.818,-0.002 -16.856,0.792 -29.738,7.193 -41.111,19.724 z m -302.408,49.797 c -0.684,3.185 -1.406,6.361 -2.165,9.528 -0.759,3.168 -1.556,6.326 -2.391,9.475 -0.835,3.149 -1.707,6.287 -2.616,9.415 -0.909,3.128 -1.855,6.245 -2.838,9.35 -0.983,3.106 -2.003,6.199 -3.06,9.28 -1.057,3.081 -2.15,6.15 -3.28,9.205 -1.13,3.055 -2.296,6.097 -3.498,9.124 -1.202,3.028 -2.44,6.041 -3.713,9.039 -1.274,2.998 -2.583,5.981 -3.928,8.948 -1.345,2.967 -2.724,5.917 -4.139,8.851 -1.415,2.935 -2.864,5.852 -4.348,8.751 -1.484,2.9 -3.002,5.782 -4.555,8.645 -1.553,2.864 -3.139,5.709 -4.759,8.535 -1.62,2.826 -3.274,5.632 -4.961,8.418 -1.687,2.787 -3.406,5.553 -5.159,8.299 -8.427,13.015 -20.161,24.849 -27.643,37.977 4.683,-3.701 9.453,-7.311 13.744,-11.471 5.962,-6.928 11.654,-14.087 17.727,-20.919 12.991,-14.614 26.2,-28.514 37.286,-44.75 18.603,-27.244 28.721,-57.216 40.011,-87.847 -6.192,-7.711 -13.828,-15.082 -23.777,-17.431 -0.608,3.2 -1.254,6.393 -1.938,9.578 z m 146.963,6.083 0.338,0.657 c 3.508,6.897 5.367,14.71 7.775,22.038 2.962,9.011 6.6,18.42 10.628,26.986 15.49,32.934 35.079,56.249 59.767,82.323 6.413,6.774 13.118,13.133 19.341,20.106 4.356,3.93 8.747,7.23 13.931,9.997 -4.451,-5.606 -8.493,-11.521 -13.019,-17.064 -6.097,-7.466 -12.68,-14.465 -18.299,-22.32 -10.535,-14.725 -20.096,-31.923 -27.394,-48.502 -5.749,-12.924 -10.764,-26.127 -15.043,-39.61 -2.926,-9.527 -5.247,-19.249 -8.029,-28.824 -1.009,-3.475 -4.494,-19.363 -6.481,-21.205 l -0.666,0.032 c -9.192,3.759 -15.917,8.288 -22.849,15.386 z m 129.032,111.194 c 6.179,6.498 12.906,12.495 19.47,18.599 18.532,17.232 39.708,36.407 66.575,37.173 10.149,0.289 23.436,-2.721 30.896,-10.032 0.379,-0.371 0.733,-0.766 1.091,-1.158 4.687,-6.136 7.106,-13.133 6.126,-20.952 -1.013,-8.08 -5.374,-16.286 -11.814,-21.348 -1.255,-0.997 -2.588,-1.874 -3.999,-2.631 -11.721,5.085 -30.373,7.997 -42.557,3.02 -0.988,-0.409 -1.962,-0.849 -2.922,-1.319 -12.444,6.35 -25.409,6.649 -38.677,2.336 -5.569,-1.81 -11.859,-5.604 -17.831,-4.501 -2.112,0.248 -4.27,0.415 -6.358,0.813 z m 102.808,14.524 0.801,0.055 c 3.941,2.612 6.778,8.792 8.574,13.053 -0.46,1.724 -1.05,3.481 -1.967,5.019 -3.148,5.28 -8.853,8.097 -14.673,9.377 -13.14,2.89 -27.897,-2.55 -38.906,-9.474 -6.755,-4.316 -13.338,-8.667 -19.545,-13.756 5.216,0.449 11.033,0.59 16.224,-0.138 3.782,-0.53 7.81,-1.684 11.6,-1.832 3.111,-0.122 6.458,1.082 9.626,1.282 9.938,0.625 18.759,-0.95 28.266,-3.586 z m -361.948,188.372 c -5.702,5.343 -11.71,10.272 -18.88,13.511 -7.556,3.413 -16.011,5.694 -24.092,7.564 -6.151,1.424 -14.485,1.707 -19.869,4.974 -5.006,3.037 -7.918,8.564 -9.335,14.088 -0.138,0.559 -0.262,1.121 -0.373,1.686 -0.11,0.565 -0.206,1.133 -0.289,1.702 -0.083,0.57 -0.151,1.142 -0.206,1.715 -0.054,0.573 -0.094,1.147 -0.12,1.722 -0.027,0.575 -0.039,1.151 -0.037,1.727 0.002,0.575 0.018,1.151 0.049,1.726 0.03,0.575 0.074,1.149 0.133,1.722 0.059,0.573 0.131,1.143 0.218,1.712 0.087,0.569 0.187,1.136 0.302,1.701 0.114,0.564 0.242,1.125 0.385,1.683 0.142,0.558 0.298,1.112 0.467,1.662 0.169,0.551 0.352,1.097 0.548,1.638 0.196,0.541 0.405,1.077 0.628,1.608 0.222,0.531 0.457,1.057 0.706,1.576 0.248,0.519 0.509,1.032 0.783,1.539 0.273,0.507 0.559,1.006 0.857,1.499 1.555,2.572 3.45,4.781 5.688,6.789 8.738,6.673 16.598,8.477 27.374,6.988 12.784,-1.767 24.882,-10.704 32.445,-20.864 10.495,-14.1 14.366,-34.469 15.503,-51.689 0.254,-3.834 0.67,-7.922 0.073,-11.728 -0.248,-1.583 -0.476,-2.739 -1.571,-3.971 l -1.847,-0.388 c -3.619,2.163 -6.483,5.243 -9.54,8.108 z M 157.728,57.608175 c -14.22,12.513 -26.604,26.688 -38.731,41.187 -5.377,6.428995 -10.406,13.148995 -15.454,19.836995 2.296,0.997 4.248,1.983 6.269,3.504 l 0.487,-0.171 c 0.044,-0.187 0.085,-0.374 0.131,-0.559 0.433,-1.743 0.798,-2.603 2.122,-3.827 10.677,-9.869 21.483,-20.633995 33.177,-29.256995 4.827,-3.559 10.259,-6.438 15.487,-9.365 21.823,-12.217 44.563,-20.938 69.993,-20.201 11.664,0.339 23.411,2.981 33.86,8.239 6.23,2.841 11.479,5.95 16.94,10.077 -8.1,-12.341 -24.219,-19.687 -38.167,-22.594 -15.266,-3.182 -37.467,-1.181 -52.406,3.524 -7.216,2.273 -14.096,5.763 -21.549,7.237 9.123,-4.133 17.617,-9.569 26.748,-13.576 22.755,-9.984 52.053,-13.367 75.587,-4.512 8.102,3.048 15.663,7.264 21.863,13.372 11.137,-12.625 13.042,-18.967 28.976,-27.162 -17.925,-10.466 -58.912,-21.244 -79.394,-18.253 -28.39,2.511 -64.583,23.708 -85.939,42.5 z m 301.525,-24.195 c 7.925,4.214 15.447,8.695 21.625,15.33 3.309,3.553 6.243,7.466 9.59,10.972 4.278,-3.002 8.463,-6.466 13.054,-8.961 16.673,-9.062 37.382,-9.902 55.721,-6.64 17.651,3.139 34.328,10.954 49.438,20.46 -8.383,-2.29 -16.31,-6.13 -24.686,-8.299 -18.258,-4.728 -47.561,-4.419 -64.371,5.083 -7.094,4.009 -12.813,10.208 -18.553,15.89 10.069,-4.939 16.877,-11.336 28.275,-14.505 34.908,-8.622 66.307,0.285 96.248,18.461 12.696,7.707 37.693,28.992995 46.142,40.810995 l 0.467,0.647 6.421,-4.014 C 650.166,79.961175 625.456,52.950175 582.685,29.889175 c -11.426,-6.16 -22.445,-11.875 -35.438,-13.899 -6.563,-1.023 -13.397,-1.437 -20.024,-0.876 -24.259,2.066 -45.745,8.669 -67.97,18.299 z m -147.979,51.654 c -4.078,8.307 -7.341,17.082995 -11.962,25.117995 -5.262,9.15 -13.039,16.024 -15.991,26.571 -1.378,4.926 -2.051,10.227 -1.732,15.339 0.76,12.199 7.754,31.654 16.859,40.078 5.91,5.469 14.291,8.108 18.251,15.556 1.883,3.543 2.457,7.571 2.715,11.524 1.364,20.89 -10.733,35.096 -16.694,54.237 12.021,1.938 21.173,6.689 29.797,15.189 -0.138,-10.448 1.108,-21.795 4.154,-31.841 l 0.64,-0.166 c 1.823,3.708 2.339,8.59 3.301,12.62 1.287,5.396 3.148,10.49 4.116,15.993 1.194,6.787 1.63,13.756 2.338,20.61 l 4.178,44.507 9.631,93.824 c 1.47,14.807 2.355,29.628 4.062,44.423 1.71,14.817 3.331,30.071 6.226,44.705 1.843,9.311 4.583,18.503 6.763,27.75 7.056,-3.927 16.207,-5.153 24.151,-3.744 2.454,0.147 4.632,0.912 6.945,1.669 -3.459,0.658 -6.933,1.215 -10.424,1.67 -6.815,0.929 -13.614,1.836 -20.307,3.462 1.783,8.284 4.615,16.737 7.783,24.597 6.766,-2.667 15.852,-5.791 23.077,-3.236 -0.307,0.864 -0.347,0.718 -1.163,1.096 -3.716,1.721 -8.128,2.387 -12.066,3.537 -2.963,0.866 -5.885,2.116 -8.717,3.342 3.681,6.68 5.384,14.246 9.191,20.845 l 2.566,4.495 c 6.186,-2.789 12.417,-4.936 18.919,-6.837 -7.54,-0.404 -14.173,0.617 -21.485,2.342 l 2.566,4.495 -0.321,0.77 c 3.059,7.108 6.356,14.103 9.893,20.986 4.082,-1.005 9.412,-1.99 13.496,-0.684 l 0.136,0.721 c -1.343,1.277 -2.892,1.883 -4.576,2.614 -2.015,0.875 -3.434,1.769 -5.124,3.149 l -0.563,0.467 c 4.527,5.372 8.278,11.545 12.585,17.124 15.169,19.645 34.747,38.501 58.969,45.886 0.953,0.288 1.913,0.552 2.88,0.793 0.966,0.241 1.938,0.459 2.915,0.652 0.977,0.193 1.958,0.362 2.943,0.507 0.985,0.145 1.974,0.266 2.965,0.362 0.991,0.097 1.984,0.169 2.979,0.217 0.995,0.047 1.991,0.071 2.987,0.07 0.996,-10e-4 1.991,-0.027 2.986,-0.077 0.995,-0.05 1.987,-0.125 2.978,-0.224 0.991,-0.099 1.979,-0.222 2.964,-0.369 0.985,-0.147 1.966,-0.319 2.943,-0.514 0.977,-0.195 1.948,-0.415 2.913,-0.658 0.966,-0.243 1.925,-0.51 2.878,-0.8 0.953,-0.291 1.898,-0.604 2.835,-0.941 0.937,-0.337 1.866,-0.696 2.786,-1.078 0.919,-0.383 1.829,-0.787 2.729,-1.214 0.899,-0.427 1.788,-0.876 2.666,-1.347 7.853,-4.236 15.09,-10.197 17.766,-18.962 -1.661,1.499 -3.361,2.952 -5.1,4.36 -10.937,8.865 -26.006,11.59 -39.769,10.022 -20.192,-2.302 -37.113,-16.972 -49.251,-32.322 -18.195,-23.01 -28.946,-54.793 -33.511,-83.527 -2.696,-16.969 -3.081,-33.823 -3.176,-50.972 -0.113,-20.239 0.492,-40.282 1.711,-60.483 1.297,-21.502 1.862,-43.038 3.833,-64.503 1.721,-18.746 4.716,-37.488 6.826,-56.209 2.334,-20.695 3.674,-41.604 6.34,-62.244 1.627,-12.587 4.696,-24.813 6.156,-37.486 1.062,2.919 1.988,5.88 2.779,8.884 0.791,3.003 1.443,6.037 1.956,9.1 0.513,3.063 0.886,6.144 1.117,9.241 0.232,3.097 0.322,6.199 0.269,9.304 8.215,-8.824 18.876,-13.73 30.702,-15.517 -3.003,-11.686 -8.849,-22.718 -12.939,-34.058 -4.397,-12.191 -5.57,-29.418 4.78,-39.007 2.538,-2.352 5.832,-4.069 8.728,-5.961 6.599,-4.309 11.453,-10.603 14.761,-17.702 7.673,-16.466 10,-34.803 0.372,-50.906 -3.582,-5.992 -8.348,-11.24 -11.819,-17.292 -4.52,-7.879 -7.436,-16.914995 -10.575,-25.420995 4.634,4.734 7.752,10.615 12.086,15.625 0.254,-8.373 0.07,-16.665 -2.807,-24.626 -5.713,-15.809 -19.31,-25.45 -34.09,-32.213 -21.455,-9.817 -33.076,-8.773 -54.547,-0.774 -8.293,-3.317 -16.154,-6.785 -25.261,-6.661 -18.737,0.254 -41.822,9.27 -54.886,22.872 -11.116,11.574 -13.156,24.042 -12.8,39.669 4.28,-3.844 7.237,-8.905 11.819,-12.413 z m 9.496,108.170995 c 2.409,0.695 4.27,1.739 5.962,3.626 5.425,6.051 4.815,15.676 4.493,23.216 -1.839,-1.506 -2.025,-9.971 -2.739,-12.676 -1.309,-4.962 -4.433,-10.256 -7.716,-14.166 z m 129.559,28.632 c -2.015,-10.896 -0.212,-19.53 1.836,-30.203 2.371,0.433 4.501,-0.036 6.842,0.141 -6.979,9.586 -6.542,18.974 -8.678,30.062 z m -63.148,283.213 c 6.561,-0.873 13.54,-0.017 19.394,3.113 -4.636,0.507 -9.219,0.666 -13.876,0.768 -4.833,0.558 -11.679,2.166 -16.401,1.212 -1.011,-0.204 -0.682,0.007 -1.198,-0.765 0.116,-0.157 0.217,-0.328 0.349,-0.472 2.729,-2.977 7.971,-3.345 11.732,-3.856 z m -0.197,-25.996 c 8.897,-0.651 15.218,0.991 23.436,4.36 -5.354,0.151 -10.75,-0.087 -16.106,-0.182 -3.279,0.01 -19.47,1.371 -21.195,0.187 3.225,-2.919 9.667,-3.891 13.865,-4.365 z m -2.195,49.019 c 8.465,-1.064 16.53,0.436 24.624,2.776 -4.625,0.676 -9.388,0.862 -14.05,1.233 -5.877,0.494 -17.077,1.979 -22.404,0.411 l -0.295,-0.64 c 2.837,-3.168 8.158,-3.347 12.125,-3.78 z m 0.79,-77.523 c 5.787,-0.341 11.071,0.212 16.734,1.503 2.019,0.461 6.054,1.059 7.189,2.875 l -0.65,0.607 c -4.725,1.184 -10.387,0.594 -15.22,0.335 -8.663,-0.15 -16.853,0.702 -25.359,2.231 5.439,-3.664 10.975,-5.887 17.306,-7.551 z m 2.093,-32.966 c 10.594,-0.999 19.732,2.487 28.516,8.146 -7.223,-1.49 -14.36,-1.694 -21.701,-1.912 -10.059,-0.361 -19.537,-0.257 -29.368,2.189 6.508,-5.772 14.04,-7.866 22.553,-8.423 z m -4.593,-35.432 c 1.094,-0.117 2.191,-0.194 3.291,-0.233 12.308,-0.429 23.105,0.847 32.433,9.483 -7.935,-1.972 -16.327,-1.927 -24.46,-2.093 -11.365,0.035 -22.174,0.6 -33.237,3.318 -0.094,-0.723 0.201,-1.176 0.634,-1.777 3.993,-5.543 14.941,-7.993 21.339,-8.698 z m 2.973,-42.088 c 1.848,-0.207 3.779,-0.123 5.636,-0.099 12.467,0.164 23.813,3.969 32.566,13.001 -9.734,-3.703 -19.417,-3.819 -29.704,-4.436 -13.449,-0.266 -25.586,0.389 -38.521,4.39 7.54,-8.514 19.103,-11.69 30.023,-12.856 z m 0.606,-135.081 c 3.777,-0.286 7.717,-0.023 11.468,0.447 13.758,1.725 27.543,9.471 36.086,20.434 -9.485,-8.005 -20.244,-11.251 -32.465,-12.127 -17.602,-2.039 -36.17,0.4 -51.729,8.969 2.049,-2.506 4.826,-4.3 7.476,-6.115 9.586,-6.563 17.781,-9.494 29.164,-11.608 z m -1.461,91.576 c 3.251,-0.469 6.91,-0.319 10.175,-0.009 12.246,1.164 25.698,5.787 33.718,15.535 -10.361,-5.027 -21.276,-5.697 -32.572,-6.636 -15.293,-0.481 -30.288,0.107 -44.361,6.674 9.334,-9.874 19.834,-13.823 33.04,-15.564 z m 0.78,-46.038 c 18.197,-0.935 31.573,5.682 45.183,17.273 -11.486,-5.67 -23.328,-6.931 -35.904,-7.829 -16.565,-0.273 -31.21,1.396 -46.888,6.955 13.419,-9.661 21.038,-13.89 37.609,-16.399 z m 58.524,-40.957 c -4.402,-14.06 -4.147,-33.713 2.809,-46.984 3.829,-7.306 10.626,-13.901 18.665,-16.234 7.417,-2.153 16.598,-0.445 23.236,3.402 0.204,0.117 0.403,0.241 0.604,0.362 -2.551,1.66 -6.226,3.431 -6.807,6.718 -0.433,2.457 -0.019,5.041 -0.109,7.525 -0.303,8.341 -4.561,15.435 -11.109,20.379 -3.87,2.922 -8.396,5.018 -12.783,7.043 -2.341,-0.177 -4.471,0.292 -6.842,-0.141 l -1.162,-0.061 c -3.521,3.985 -5.224,12.789 -6.502,17.991 z m 13.345,-36.12 c -0.276,0.717 -0.247,1.377 -0.193,2.126 0.952,1.263 1.302,1.226 2.765,1.685 4.996,-0.647 7.818,-2.261 10.966,-6.3 1.447,-1.856 2.614,-4.234 2.266,-6.622 -0.893,-1.447 -1.211,-2.038 -2.88,-2.589 -4.571,1.951 -11.077,6.894 -12.924,11.7 z m -153.18,-27.932 c 7.84,-0.542 14.715,1.419 20.829,6.487 10.175,8.435 13.684,20.394 14.838,33.12 0.417,4.598 1.013,20.635 -1.691,23.851 l -0.858,-0.077 c -1.139,-1.336 -1.546,-2.595 -2.086,-4.258 l -0.217,-0.68 c -1.643,-5.282 -3.346,-9.254 -7.488,-13.106 -1.719,0.052 -3.438,0.08 -5.157,0.085 -6.248,-0.018 -12.729,-3.676 -17,-8.083 -7.885,-8.136 -7.621,-17.584 -7.472,-28.015 -1.749,-1.147 -3.427,-2.134 -4.738,-3.8 -0.293,-1.362 -0.258,-1.282 0.464,-2.484 2.895,-1.9 7.186,-2.467 10.576,-3.04 z m 5.014,24.993 c 1.372,2.847 3.643,4.807 6.639,5.803 2.167,0.721 3.6,0.434 5.685,-0.273 0.581,-0.777 1.114,-1.021 0.947,-2.031 -0.618,-3.729 -5.396,-8.675 -8.63,-10.589 -1.443,-0.853 -3.181,-1.07 -4.824,-1.141 -0.986,2.809 -1.138,5.491 0.183,8.231 z"
     id="path1"
     style="fill:#000000;fill-opacity:1" />
</svg>
